<mxfile host="app.diagrams.net" modified="2023-03-25T11:38:36.280Z" agent="Mozilla/5.0 (Windows NT 10.0; Win64; x64) AppleWebKit/537.36 (KHTML, like Gecko) Chrome/111.0.0.0 Safari/537.36" etag="bKHizFVnRe2MNC-CtBQV" version="21.1.1" type="device">
  <diagram name="Page-1" id="ATk2rWN_l1x-sr9k3zM6">
    <mxGraphModel dx="842" dy="439" grid="1" gridSize="10" guides="1" tooltips="1" connect="1" arrows="1" fold="1" page="1" pageScale="1" pageWidth="850" pageHeight="1100" math="0" shadow="0">
      <root>
        <mxCell id="0" />
        <mxCell id="1" parent="0" />
        <mxCell id="QKHEh1TeqohEVayJiThj-4" value="" style="edgeStyle=orthogonalEdgeStyle;rounded=0;orthogonalLoop=1;jettySize=auto;html=1;" edge="1" parent="1" source="QKHEh1TeqohEVayJiThj-2" target="QKHEh1TeqohEVayJiThj-3">
          <mxGeometry relative="1" as="geometry" />
        </mxCell>
        <mxCell id="QKHEh1TeqohEVayJiThj-2" value="Sample Timer&lt;br&gt;IRQ every 20 ms" style="rounded=0;whiteSpace=wrap;html=1;" vertex="1" parent="1">
          <mxGeometry x="80" y="130" width="120" height="60" as="geometry" />
        </mxCell>
        <mxCell id="QKHEh1TeqohEVayJiThj-6" value="" style="edgeStyle=orthogonalEdgeStyle;rounded=0;orthogonalLoop=1;jettySize=auto;html=1;" edge="1" parent="1" source="QKHEh1TeqohEVayJiThj-3" target="QKHEh1TeqohEVayJiThj-5">
          <mxGeometry relative="1" as="geometry" />
        </mxCell>
        <mxCell id="QKHEh1TeqohEVayJiThj-3" value="Get proximity sample" style="rounded=0;whiteSpace=wrap;html=1;" vertex="1" parent="1">
          <mxGeometry x="80" y="210" width="120" height="60" as="geometry" />
        </mxCell>
        <mxCell id="QKHEh1TeqohEVayJiThj-5" value="Samples queue" style="rounded=0;whiteSpace=wrap;html=1;" vertex="1" parent="1">
          <mxGeometry x="80" y="290" width="120" height="60" as="geometry" />
        </mxCell>
        <mxCell id="QKHEh1TeqohEVayJiThj-9" value="" style="edgeStyle=orthogonalEdgeStyle;rounded=0;orthogonalLoop=1;jettySize=auto;html=1;" edge="1" parent="1" source="QKHEh1TeqohEVayJiThj-7" target="QKHEh1TeqohEVayJiThj-8">
          <mxGeometry relative="1" as="geometry" />
        </mxCell>
        <mxCell id="QKHEh1TeqohEVayJiThj-7" value="Filter sample" style="rounded=0;whiteSpace=wrap;html=1;" vertex="1" parent="1">
          <mxGeometry x="260" y="160" width="120" height="60" as="geometry" />
        </mxCell>
        <mxCell id="QKHEh1TeqohEVayJiThj-11" value="" style="edgeStyle=orthogonalEdgeStyle;rounded=0;orthogonalLoop=1;jettySize=auto;html=1;" edge="1" parent="1" source="QKHEh1TeqohEVayJiThj-8" target="QKHEh1TeqohEVayJiThj-10">
          <mxGeometry relative="1" as="geometry" />
        </mxCell>
        <mxCell id="QKHEh1TeqohEVayJiThj-8" value="Heart rate processor" style="rounded=0;whiteSpace=wrap;html=1;" vertex="1" parent="1">
          <mxGeometry x="260" y="240" width="120" height="60" as="geometry" />
        </mxCell>
        <mxCell id="QKHEh1TeqohEVayJiThj-10" value="Output via USB-CDC" style="rounded=0;whiteSpace=wrap;html=1;" vertex="1" parent="1">
          <mxGeometry x="260" y="320" width="120" height="60" as="geometry" />
        </mxCell>
        <mxCell id="QKHEh1TeqohEVayJiThj-15" style="edgeStyle=orthogonalEdgeStyle;rounded=0;orthogonalLoop=1;jettySize=auto;html=1;entryX=0.5;entryY=0;entryDx=0;entryDy=0;" edge="1" parent="1" source="QKHEh1TeqohEVayJiThj-12" target="QKHEh1TeqohEVayJiThj-7">
          <mxGeometry relative="1" as="geometry" />
        </mxCell>
        <mxCell id="QKHEh1TeqohEVayJiThj-12" value="Get sample from queue" style="rounded=0;whiteSpace=wrap;html=1;" vertex="1" parent="1">
          <mxGeometry x="260" y="80" width="120" height="60" as="geometry" />
        </mxCell>
      </root>
    </mxGraphModel>
  </diagram>
</mxfile>
